<svg xmlns="http://www.w3.org/2000/svg" viewBox="0 0 160 160" role="img" aria-label="Zoe portrait">
  <defs>
    <linearGradient id="bg" x1="23" y1="8" x2="138" y2="151" gradientUnits="userSpaceOnUse">
      <stop stop-color="#f3d37f"/>
      <stop offset=".5" stop-color="#d77f7b"/>
      <stop offset="1" stop-color="#77435f"/>
    </linearGradient>
    <radialGradient id="light" cx="48" cy="36" r="86" gradientUnits="userSpaceOnUse">
      <stop stop-color="#fff8e8" stop-opacity=".9"/>
      <stop offset=".66" stop-color="#fff8e8" stop-opacity=".08"/>
      <stop offset="1" stop-color="#fff8e8" stop-opacity="0"/>
    </radialGradient>
  </defs>
  <rect width="160" height="160" fill="url(#bg)"/>
  <circle cx="48" cy="34" r="80" fill="url(#light)"/>
  <path fill="#5b342b" d="M34 78c0-36 18-58 48-58s49 22 49 58c0 27-12 48-26 61H58C43 125 34 104 34 78Z"/>
  <path fill="#7b4632" d="M37 68c10-28 25-41 46-41 22 0 37 14 47 43-18-13-33-19-47-19-16 0-31 5-46 17Z"/>
  <path fill="#edb17e" d="M50 77c0-23 13-39 33-39s33 16 33 39c0 29-13 49-33 49S50 106 50 77Z"/>
  <path fill="#cd7e5d" d="M79 80h8l-4 18-8-1 4-17Z" opacity=".65"/>
  <path fill="#2a1b18" d="M61 77c6-5 14-5 20 0-7 2-14 2-20 0Zm29 0c6-5 14-5 20 0-7 2-14 2-20 0Z"/>
  <path fill="#8c3934" d="M69 108c10 7 20 7 29 0-5 11-22 11-29 0Z"/>
  <path fill="#7a3f5e" d="M24 136c15-18 35-28 59-28 25 0 44 10 56 28v24H24v-24Z"/>
  <path fill="#fff2de" d="M51 126c17 12 46 12 63 0l-10 34H61l-10-34Z"/>
</svg>
