<svg xmlns="http://www.w3.org/2000/svg" viewBox="0 0 64 64" role="img" aria-label="D.R.A.M.A. favicon">
  <defs>
    <linearGradient id="bg" x1="10" y1="8" x2="54" y2="58" gradientUnits="userSpaceOnUse">
      <stop offset="0" stop-color="#f8d36f" />
      <stop offset="0.48" stop-color="#e95969" />
      <stop offset="1" stop-color="#2f2a62" />
    </linearGradient>
    <linearGradient id="shine" x1="20" y1="10" x2="46" y2="50" gradientUnits="userSpaceOnUse">
      <stop offset="0" stop-color="#fff7d6" />
      <stop offset="1" stop-color="#ffd1dc" />
    </linearGradient>
  </defs>
  <rect width="64" height="64" rx="14" fill="#171321" />
  <path d="M10 18c0-4.4 3.6-8 8-8h28c4.4 0 8 3.6 8 8v28c0 4.4-3.6 8-8 8H18c-4.4 0-8-3.6-8-8V18Z" fill="url(#bg)" />
  <path d="M14 22h36v8H14v-8Z" fill="#171321" />
  <path d="m18 22 7-10h8l-7 10h-8Zm15 0 7-10h8l-7 10h-8Z" fill="url(#shine)" />
  <path d="M14 30h36v17c0 2.8-2.2 5-5 5H19c-2.8 0-5-2.2-5-5V30Z" fill="#fff7e8" />
  <path d="M25 37c0-3 2.4-5.4 5.4-5.4h3.2c3 0 5.4 2.4 5.4 5.4v7.2c0 3-2.4 5.4-5.4 5.4h-3.2c-3 0-5.4-2.4-5.4-5.4V37Z" fill="#171321" />
  <path d="M29 37.5c1.7 1 4.3 1 6 0m-5.5 6.7c1.8-1 3.2-1 5 0" fill="none" stroke="#f8d36f" stroke-width="2.2" stroke-linecap="round" />
  <circle cx="29" cy="40.5" r="1.2" fill="#f8d36f" />
  <circle cx="35" cy="40.5" r="1.2" fill="#f8d36f" />
  <path d="M18 16.8c0-2 1.6-3.6 3.6-3.6h24.8c2 0 3.6 1.6 3.6 3.6V22H18v-5.2Z" fill="#fff7e8" opacity=".95" />
  <path d="M22 13.2h8l-6.3 8.8H16l6-8.8Zm17 0h8l-6.3 8.8H33l6-8.8Z" fill="#171321" />
</svg>
